<svg width="32" height="32" viewBox="0 0 32 32" fill="none" xmlns="http://www.w3.org/2000/svg">
  <rect width="32" height="32" rx="8" fill="#3B82F6"/>
  <path d="M16 6C13.7909 6 12 7.79086 12 10V12H10C9.44772 12 9 12.4477 9 13V23C9 23.5523 9.44772 24 10 24H22C22.5523 24 23 23.5523 23 23V13C23 12.4477 22.5523 12 22 12H20V10C20 7.79086 18.2091 6 16 6ZM16 8C17.1046 8 18 8.89543 18 10V12H14V10C14 8.89543 14.8954 8 16 8ZM11 14H21V22H11V14Z" fill="white"/>
  <circle cx="16" cy="18" r="2" fill="white"/>
</svg>
